<svg width="24" height="24" viewBox="0 0 24 24" fill="none" xmlns="http://www.w3.org/2000/svg">
<path d="M15.9943 20.9925V18.9932C15.9943 17.9327 15.573 16.9157 14.8231 16.1658C14.0733 15.4159 13.0562 14.9946 11.9957 14.9946H5.99785C4.93736 14.9946 3.9203 15.4159 3.17042 16.1658C2.42055 16.9157 1.99927 17.9327 1.99927 18.9932V20.9925" stroke="white" stroke-width="1.99929" stroke-linecap="round" stroke-linejoin="round"/>
<path d="M15.9943 3.12695C16.8517 3.34924 17.6111 3.84996 18.1532 4.55051C18.6953 5.25106 18.9894 6.11178 18.9894 6.99758C18.9894 7.88337 18.6953 8.7441 18.1532 9.44465C17.6111 10.1452 16.8517 10.6459 15.9943 10.8682" stroke="white" stroke-width="1.99929" stroke-linecap="round" stroke-linejoin="round"/>
<path d="M21.9922 20.9924V18.9931C21.9916 18.1072 21.6967 17.2465 21.1539 16.5463C20.6111 15.8461 19.8511 15.346 18.9933 15.1245" stroke="white" stroke-width="1.99929" stroke-linecap="round" stroke-linejoin="round"/>
<path d="M8.99675 10.9962C11.2051 10.9962 12.9953 9.20596 12.9953 6.9976C12.9953 4.78925 11.2051 2.99902 8.99675 2.99902C6.78839 2.99902 4.99817 4.78925 4.99817 6.9976C4.99817 9.20596 6.78839 10.9962 8.99675 10.9962Z" stroke="white" stroke-width="1.99929" stroke-linecap="round" stroke-linejoin="round"/>
</svg>
