<svg width="24" height="24" viewBox="0 0 24 24" fill="none" xmlns="http://www.w3.org/2000/svg">
<path d="M19.9929 12.9956C19.9929 17.9938 16.4942 20.4929 12.3356 21.9424C12.1179 22.0162 11.8813 22.0126 11.6659 21.9324C7.49735 20.4929 3.9986 17.9938 3.9986 12.9956V5.99805C3.9986 5.73293 4.10392 5.47867 4.29139 5.2912C4.47886 5.10373 4.73312 4.99841 4.99824 4.99841C6.99753 4.99841 9.49664 3.79883 11.236 2.27937C11.4478 2.09844 11.7172 1.99902 11.9958 1.99902C12.2743 1.99902 12.5437 2.09844 12.7555 2.27937C14.5049 3.80883 16.994 4.99841 18.9933 4.99841C19.2584 4.99841 19.5127 5.10373 19.7001 5.2912C19.8876 5.47867 19.9929 5.73293 19.9929 5.99805V12.9956Z" stroke="white" stroke-width="1.99929" stroke-linecap="round" stroke-linejoin="round"/>
</svg>
