<svg width="24" height="24" viewBox="0 0 24 24" fill="none" xmlns="http://www.w3.org/2000/svg">
<path d="M2.99896 6.9976V4.99831C2.99896 4.46807 3.2096 3.95954 3.58454 3.5846C3.95948 3.20966 4.46801 2.99902 4.99825 2.99902H6.99754" stroke="white" stroke-width="1.99929" stroke-linecap="round" stroke-linejoin="round"/>
<path d="M16.994 2.99902H18.9932C19.5235 2.99902 20.032 3.20966 20.407 3.5846C20.7819 3.95954 20.9925 4.46807 20.9925 4.99831V6.9976" stroke="white" stroke-width="1.99929" stroke-linecap="round" stroke-linejoin="round"/>
<path d="M20.9925 16.9941V18.9934C20.9925 19.5237 20.7819 20.0322 20.407 20.4071C20.032 20.7821 19.5235 20.9927 18.9932 20.9927H16.994" stroke="white" stroke-width="1.99929" stroke-linecap="round" stroke-linejoin="round"/>
<path d="M6.99754 20.9927H4.99825C4.46801 20.9927 3.95948 20.7821 3.58454 20.4071C3.2096 20.0322 2.99896 19.5237 2.99896 18.9934V16.9941" stroke="white" stroke-width="1.99929" stroke-linecap="round" stroke-linejoin="round"/>
</svg>
