<svg width="24" height="24" viewBox="0 0 24 24" fill="none" xmlns="http://www.w3.org/2000/svg">
<path d="M11.9958 17.9934V4.99805" stroke="white" stroke-width="1.99929" stroke-linecap="round" stroke-linejoin="round"/>
<path d="M14.9947 12.9952C14.1298 12.7423 13.3701 12.2161 12.8294 11.4952C12.2888 10.7743 11.9963 9.89767 11.9957 8.99658C11.9952 9.89767 11.7027 10.7743 11.162 11.4952C10.6214 12.2161 9.86169 12.7423 8.9968 12.9952" stroke="white" stroke-width="1.99929" stroke-linecap="round" stroke-linejoin="round"/>
<path d="M17.5917 6.49756C17.8218 6.09919 17.9571 5.65324 17.9872 5.19421C18.0173 4.73519 17.9414 4.27539 17.7654 3.85039C17.5893 3.42539 17.3179 3.04658 16.972 2.74327C16.6262 2.43996 16.2152 2.22027 15.7709 2.10121C15.3265 1.98215 14.8608 1.9669 14.4096 2.05665C13.9584 2.1464 13.5339 2.33874 13.169 2.61878C12.804 2.89883 12.5084 3.25907 12.305 3.67165C12.1015 4.08423 11.9957 4.53808 11.9957 4.99809C11.9958 4.53808 11.8899 4.08423 11.6865 3.67165C11.4831 3.25907 11.1874 2.89883 10.8225 2.61878C10.4575 2.33874 10.0331 2.1464 9.58189 2.05665C9.13071 1.9669 8.66494 1.98215 8.22061 2.10121C7.77627 2.22027 7.36528 2.43996 7.01943 2.74327C6.67358 3.04658 6.40214 3.42539 6.22611 3.85039C6.05009 4.27539 5.97419 4.73519 6.00429 5.19421C6.0344 5.65324 6.1697 6.09919 6.39972 6.49756" stroke="white" stroke-width="1.99929" stroke-linecap="round" stroke-linejoin="round"/>
<path d="M17.9906 5.12305C18.5782 5.27413 19.1237 5.55694 19.5858 5.95007C20.0479 6.34319 20.4145 6.83631 20.6578 7.39209C20.9011 7.94787 21.0148 8.55172 20.9901 9.15793C20.9655 9.76413 20.8033 10.3568 20.5157 10.891" stroke="white" stroke-width="1.99929" stroke-linecap="round" stroke-linejoin="round"/>
<path d="M17.9936 17.9936C18.8738 17.9935 19.7294 17.7031 20.4277 17.1672C21.126 16.6314 21.628 15.8801 21.8558 15.0299C22.0836 14.1797 22.0245 13.2781 21.6877 12.4649C21.3509 11.6517 20.7552 10.9724 19.9929 10.5322" stroke="white" stroke-width="1.99929" stroke-linecap="round" stroke-linejoin="round"/>
<path d="M19.9599 17.4766C20.03 18.0186 19.9882 18.5693 19.8371 19.0945C19.686 19.6198 19.4288 20.1085 19.0815 20.5304C18.7341 20.9524 18.3039 21.2987 17.8175 21.5479C17.331 21.7971 16.7987 21.9439 16.2533 21.9793C15.7079 22.0147 15.161 21.9379 14.6464 21.7537C14.1319 21.5694 13.6605 21.2816 13.2615 20.9081C12.8626 20.5346 12.5444 20.0832 12.3267 19.5819C12.109 19.0806 11.9963 18.5399 11.9958 17.9934C11.9952 18.5399 11.8825 19.0806 11.6648 19.5819C11.4471 20.0832 11.1289 20.5346 10.73 20.9081C10.331 21.2816 9.85964 21.5694 9.34508 21.7537C8.83052 21.9379 8.28365 22.0147 7.73824 21.9793C7.19284 21.9439 6.66048 21.7971 6.17404 21.5479C5.6876 21.2987 5.25742 20.9524 4.91005 20.5304C4.56269 20.1085 4.30552 19.6198 4.15443 19.0945C4.00333 18.5693 3.96152 18.0186 4.03158 17.4766" stroke="white" stroke-width="1.99929" stroke-linecap="round" stroke-linejoin="round"/>
<path d="M5.99786 17.9936C5.11766 17.9935 4.26208 17.7031 3.56379 17.1672C2.86549 16.6314 2.36352 15.8801 2.1357 15.0299C1.90789 14.1797 1.96697 13.2781 2.30378 12.4649C2.6406 11.6517 3.23632 10.9724 3.99857 10.5322" stroke="white" stroke-width="1.99929" stroke-linecap="round" stroke-linejoin="round"/>
<path d="M6.00086 5.12305C5.41327 5.27413 4.86776 5.55694 4.40565 5.95007C3.94355 6.34319 3.57696 6.83631 3.33365 7.39209C3.09034 7.94787 2.97669 8.55172 3.00131 9.15793C3.02593 9.76413 3.18817 10.3568 3.47575 10.891" stroke="white" stroke-width="1.99929" stroke-linecap="round" stroke-linejoin="round"/>
</svg>
