<svg width="24" height="24" viewBox="0 0 24 24" fill="none" xmlns="http://www.w3.org/2000/svg">
<path d="M3.99857 13.9949C3.8094 13.9956 3.62393 13.9425 3.46371 13.842C3.30349 13.7414 3.17509 13.5974 3.09344 13.4268C3.01178 13.2561 2.98022 13.0658 3.00242 12.878C3.02462 12.6901 3.09967 12.5124 3.21884 12.3655L13.1153 2.16913C13.1896 2.08344 13.2907 2.02553 13.4022 2.00492C13.5137 1.9843 13.6289 2.0022 13.7288 2.05567C13.8288 2.10914 13.9076 2.19501 13.9524 2.29919C13.9971 2.40336 14.0051 2.51965 13.975 2.62896L12.0557 8.64682C11.9991 8.79829 11.9801 8.96123 12.0003 9.12166C12.0205 9.28209 12.0794 9.43522 12.1718 9.56792C12.2642 9.70062 12.3874 9.80893 12.5308 9.88354C12.6743 9.95816 12.8337 9.99687 12.9954 9.99634H19.9929C20.1821 9.9957 20.3675 10.0487 20.5277 10.1493C20.688 10.2499 20.8164 10.3938 20.898 10.5645C20.9797 10.7351 21.0112 10.9254 20.989 11.1133C20.9668 11.3012 20.8918 11.4789 20.7726 11.6258L10.8761 21.8221C10.8019 21.9078 10.7007 21.9657 10.5892 21.9864C10.4778 22.007 10.3626 21.9891 10.2626 21.9356C10.1626 21.8821 10.0838 21.7963 10.0391 21.6921C9.99435 21.5879 9.98636 21.4716 10.0164 21.3623L11.9357 15.3444C11.9923 15.193 12.0113 15.03 11.9911 14.8696C11.9709 14.7092 11.9121 14.556 11.8197 14.4233C11.7273 14.2906 11.6041 14.1823 11.4606 14.1077C11.3172 14.0331 11.1578 13.9944 10.9961 13.9949H3.99857Z" stroke="white" stroke-width="1.99929" stroke-linecap="round" stroke-linejoin="round"/>
</svg>
